<?xml version="1.0" encoding="utf-8"?>
<!-- Generator: Adobe Illustrator 22.1.0, SVG Export Plug-In . SVG Version: 6.00 Build 0)  -->
<svg version="1.1" id="Layer_1" xmlns="http://www.w3.org/2000/svg" xmlns:xlink="http://www.w3.org/1999/xlink" x="0px" y="0px"
	 viewBox="0 0 512 512" style="enable-background:new 0 0 512 512;" xml:space="preserve">
<g>
	<path d="M318.4,419.7c-10,0-18.1,8.1-18.1,18.1s8.1,18.1,18.1,18.1s18.1-8.1,18.1-18.1S328.4,419.7,318.4,419.7z M430.9,271.5
		c-9.5-14.7-39.5-52.7-87.6-74c-6.1-2.7-12.2-5.2-18.5-7.3c16.5-40.3-2.8-86.3-43.1-102.7c-1.6-0.7-3.3-1.3-5-1.9
		c-12.5-4.1-23.4-6-32.6-5.8c-0.6-2-1.9-11,9.4-35.2l-23-13.6l-5.5,7.6c-8.7,12.1-17,23.7-24.4,35c-2.7-0.6-5.5-1.1-8.3-1.3
		C150.6,69.9,153.1,70,151,70c-50.8,0-51,52.4-51,46.1L97.7,153c-1.6,27.1,19.8,50.4,47.8,52.1l9,0.5c-17.1,9.7-32.7,21.7-46.5,35.7
		c-62.9,63.6-62.9,133.2-62.9,189.3v33.8l23.4-29.9c3.1,13.2,8.1,25.9,14.6,37.7c5.8,10.2,14.9,9.5,19.7,7.4c4.2-1.9,10-7,3.8-20.2
		c-8-16.9-13.4-34.9-15.8-53.4l47-60.1L113,420.3c58.5-42.6,158.1-62,237.3-38.8c34.4,10.1,67.8,0.7,85.1-23.9
		c0.7-1,1.2-2.2,1.9-3.2c1.8,9.4,2.7,19,2.8,28.6c0,23.4-3.7,53.2-14.9,82c-2.5,6.5,1.8,14.6,8.6,15.8c7.5,1.6,15.4-3.1,18.5-11.2
		c9.6-25.7,14.7-54.8,14.7-86.6C466.9,344.1,453.9,305.1,430.9,271.5L430.9,271.5z M174,128l-15.8-0.9l-1.4,21.9l13.2,0.8
		c-0.6,6.5-0.5,13.1,0.3,19.7l-22.5-1.3c-6.8-0.3-12.1-6-11.8-12.8c0,0,0,0,0,0l2.4-36.8c1-12.2,13.9-11.3,13.3-11.4l29.2,1.7
		C178.2,115,175.9,121.4,174,128z M323.1,301c-4.4,3.4-10.7,2.8-14.4-1.4L299,288l-34.6,27.1c-3.4,2.7-8.3,2.2-11.2-1.1l-15.9-18.7
		c-2.5-3.2-1.9-7.9,1.3-10.4l34.7-27.3l-14.2-16.8L242,254.3c-3.3,2.5-7.9,2.1-10.6-1c0,0-3.7-4.4-3.8-4.6
		c-2.5-3.2-1.9-7.9,1.4-10.4l17-13.3c0,0-18.6-22.1-18.7-22.2c-3.2-4.2-2.5-10.2,1.7-13.5c0,0,0,0,0,0c4.4-3.5,10.7-2.9,14.4,1.4
		l81.5,96.7C328.1,291.7,327.3,297.7,323.1,301C323.1,301,323.1,301,323.1,301L323.1,301z M219.3,419.7c-10,0-18.1,8.1-18.1,18.1
		s8.1,18.1,18.1,18.1s18.1-8.1,18.1-18.1S229.3,419.7,219.3,419.7z"/>
</g>
</svg>
